# xmcd CD database file
#
# Track frame offsets:
#	150
#	15242
#	32168
#	51041
#	67201
#	81446
#	94980
#	107866
#	119300
#	133054
#
# Disc length: 2034 seconds
#
# Revision: 0
# Processed by: cddbd v1.5.2PL0 Copyright (c) Steve Scherf et al.
# Submitted via: CDex 1.51
#
DISCID=8907f00a
DTITLE=Farrelly and Walklate - Keep it clean
DYEAR=1900
DGENRE=Blues
TTITLE0=Keep it clean
TTITLE1=Good as I been to you
TTITLE2=Bag´s Groove
TTITLE3=Nothin´ but love
TTITLE4=24 hours
TTITLE5=C jam blues
TTITLE6=Bottle up and go
TTITLE7=Sunday Rhumba
TTITLE8=Black cat bone
TTITLE9=if it´s love
EXTD=
EXTT0=
EXTT1=
EXTT2=
EXTT3=
EXTT4=
EXTT5=
EXTT6=
EXTT7=
EXTT8=
EXTT9=
PLAYORDER=
